<svg xmlns="http://www.w3.org/2000/svg">
    <defs>
        <symbol id="arrow-left" viewBox="0 0 16 16">
            <path fill-rule="evenodd" clip-rule="evenodd" d="M1 8C1 11.866 4.13401 15 8 15C11.866 15 15 11.866 15 8C15 4.13401 11.866 1 8 1C4.13401 1 1 4.13401 1 8ZM16 8C16 12.4183 12.4183 16 8 16C3.58172 16 0 12.4183 0 8C0 3.58172 3.58172 0 8 0C12.4183 0 16 3.58172 16 8ZM11.5 7.5C11.7761 7.5 12 7.72386 12 8C12 8.27614 11.7761 8.5 11.5 8.5H5.70711L7.85355 10.6464C8.04882 10.8417 8.04882 11.1583 7.85355 11.3536C7.65829 11.5488 7.34171 11.5488 7.14645 11.3536L4.14645 8.35355C3.95118 8.15829 3.95118 7.84171 4.14645 7.64645L7.14645 4.64645C7.34171 4.45118 7.65829 4.45118 7.85355 4.64645C8.04882 4.84171 8.04882 5.15829 7.85355 5.35355L5.70711 7.5H11.5Z" fill="currentColor"/>
        </symbol>
        <symbol id="arrow-right" viewBox="0 0 16 16">
            <path fill-rule="evenodd" clip-rule="evenodd" d="M1 8C1 11.866 4.13401 15 8 15C11.866 15 15 11.866 15 8C15 4.13401 11.866 1 8 1C4.13401 1 1 4.13401 1 8ZM16 8C16 12.4183 12.4183 16 8 16C3.58172 16 0 12.4183 0 8C0 3.58172 3.58172 0 8 0C12.4183 0 16 3.58172 16 8ZM4.5 7.5C4.22386 7.5 4 7.72386 4 8C4 8.27614 4.22386 8.5 4.5 8.5H10.2929L8.14645 10.6464C7.95118 10.8417 7.95118 11.1583 8.14645 11.3536C8.34171 11.5488 8.65829 11.5488 8.85355 11.3536L11.8536 8.35355C12.0488 8.15829 12.0488 7.84171 11.8536 7.64645L8.85355 4.64645C8.65829 4.45118 8.34171 4.45118 8.14645 4.64645C7.95118 4.84171 7.95118 5.15829 8.14645 5.35355L10.2929 7.5H4.5Z" fill="currentColor"/>
        </symbol>
        <symbol id="star">
            <path d="M12.7933 3.85958C13.0931 2.9393 14.3951 2.9393 14.6949 3.85958L16.446 9.23398C16.5801 9.64561 16.9639 9.92418 17.3968 9.92418H23.0576C24.0269 9.92418 24.4293 11.1652 23.6443 11.734L19.0694 15.0486C18.7179 15.3033 18.5709 15.7555 18.7053 16.1682L20.4539 21.5349C20.7539 22.4557 19.7006 23.2227 18.9164 22.6544L14.3308 19.3321C13.9808 19.0784 13.5074 19.0784 13.1574 19.3321L8.57183 22.6544C7.78757 23.2227 6.73428 22.4557 7.0343 21.5348L8.78288 16.1682C8.91733 15.7555 8.77025 15.3033 8.41879 15.0486L3.84392 11.734C3.05891 11.1652 3.46124 9.92418 4.43064 9.92418H10.0914C10.5243 9.92418 10.9081 9.64561 11.0422 9.23398L12.7933 3.85958Z" fill="currentColor"/>
        </symbol>
        <symbol id="telegram">
            <path d="M16 8C16 12.4183 12.4183 16 8 16C3.58172 16 0 12.4183 0 8C0 3.58172 3.58172 0 8 0C12.4183 0 16 3.58172 16 8ZM8.28672 5.90599C7.50861 6.22963 5.95346 6.8995 3.6213 7.91558C3.2426 8.06618 3.04421 8.21351 3.02615 8.35757C2.99563 8.60103 3.30052 8.6969 3.71569 8.82745C3.77216 8.8452 3.83068 8.8636 3.89067 8.8831C4.29913 9.01588 4.84859 9.17121 5.13423 9.17738C5.39334 9.18298 5.68253 9.07616 6.0018 8.85692C8.18081 7.38603 9.30563 6.64258 9.37625 6.62655C9.42607 6.61524 9.49511 6.60102 9.54188 6.6426C9.58866 6.68418 9.58406 6.76291 9.57911 6.78404C9.5489 6.9128 8.35212 8.02543 7.73279 8.60121C7.53971 8.78071 7.40276 8.90804 7.37476 8.93712C7.31204 9.00226 7.24812 9.06388 7.18669 9.1231C6.80722 9.48891 6.52265 9.76324 7.20245 10.2112C7.52913 10.4265 7.79055 10.6045 8.05134 10.7821C8.33616 10.9761 8.62023 11.1695 8.98778 11.4105C9.08142 11.4718 9.17086 11.5356 9.25796 11.5977C9.58942 11.834 9.88721 12.0463 10.2551 12.0124C10.4689 11.9928 10.6897 11.7918 10.8018 11.1923C11.0668 9.77545 11.5878 6.70567 11.7082 5.44069C11.7187 5.32986 11.7055 5.18802 11.6948 5.12576C11.6842 5.06349 11.6619 4.97478 11.581 4.90911C11.4851 4.83133 11.3371 4.81493 11.2709 4.8161C10.9701 4.8214 10.5084 4.98192 8.28672 5.90599Z" fill="currentColor"/>
        </symbol>
        <symbol id="whatsapp">
            <path d="M13.6013 2.32644C12.1074 0.824899 10.1154 0 7.99428 0C3.62651 0 0.0684247 3.55809 0.0646233 7.92587C0.0646233 9.32478 0.429555 10.6857 1.1214 11.8907L0 16L4.20432 14.8976C5.36373 15.5286 6.6676 15.8632 7.99428 15.8632H7.99808C12.3659 15.8632 15.9239 12.3051 15.9277 7.93348C15.9239 5.81611 15.099 3.82419 13.6013 2.32644ZM7.99428 14.5213C6.80825 14.5213 5.64884 14.2019 4.63767 13.6013L4.39819 13.4569L1.90449 14.1107L2.56973 11.6778L2.41387 11.4269C1.75243 10.3778 1.40651 9.16512 1.40651 7.92207C1.40651 4.29556 4.36397 1.33809 7.99808 1.33809C9.75812 1.33809 11.4117 2.02613 12.6586 3.26919C13.9016 4.51604 14.5859 6.16964 14.5859 7.92968C14.5821 11.5676 11.6246 14.5213 7.99428 14.5213ZM11.6094 9.58708C11.4117 9.48824 10.4386 9.00927 10.2561 8.94084C10.0736 8.87622 9.94059 8.84201 9.81134 9.03968C9.67829 9.23735 9.29815 9.68591 9.18411 9.81516C9.07007 9.94821 8.95223 9.96341 8.75456 9.86458C8.55689 9.76574 7.91826 9.55667 7.16178 8.88002C6.57257 8.35543 6.17723 7.70539 6.05938 7.50772C5.94534 7.31005 6.04798 7.20361 6.14682 7.10478C6.23425 7.01734 6.34449 6.87289 6.44332 6.75885C6.54216 6.64481 6.57637 6.56118 6.64099 6.42813C6.70562 6.29508 6.67521 6.18104 6.62579 6.08221C6.57637 5.98337 6.18103 5.00642 6.01377 4.61107C5.85411 4.22333 5.69065 4.27655 5.56901 4.27275C5.45497 4.26515 5.32192 4.26515 5.18887 4.26515C5.05582 4.26515 4.84295 4.31456 4.66048 4.51224C4.47801 4.70991 3.96863 5.18888 3.96863 6.16584C3.96863 7.14279 4.67949 8.08173 4.77832 8.21478C4.87716 8.34783 6.17343 10.3474 8.16154 11.2065C8.63291 11.4117 9.00165 11.5334 9.29055 11.6246C9.76572 11.7767 10.1953 11.7539 10.5374 11.7044C10.9175 11.6474 11.7082 11.2255 11.8755 10.7617C12.0389 10.2979 12.0389 9.90259 11.9895 9.81896C11.9401 9.73533 11.8071 9.68591 11.6094 9.58708Z" fill="currentColor"/>
        </symbol>
        <symbol id="phone">
            <path d="M3.65387 1.32849C3.40343 1.00649 2.92745 0.976861 2.639 1.26531L1.60508 2.29923C1.1216 2.78271 0.94387 3.46766 1.1551 4.06847C2.00338 6.48124 3.39215 8.74671 5.32272 10.6773C7.25329 12.6078 9.51876 13.9966 11.9315 14.8449C12.5323 15.0561 13.2173 14.8784 13.7008 14.3949L14.7347 13.361C15.0231 13.0726 14.9935 12.5966 14.6715 12.3461L12.3653 10.5524C12.2008 10.4245 11.9866 10.3793 11.7845 10.4298L9.59541 10.9771C9.00082 11.1257 8.37183 10.9515 7.93845 10.5181L5.48187 8.06155C5.04849 7.62817 4.87427 6.99919 5.02292 6.40459L5.57019 4.21553C5.62073 4.01336 5.57552 3.79918 5.44758 3.63468L3.65387 1.32849ZM1.88477 0.511076C2.62689 -0.231039 3.8515 -0.154797 4.49583 0.673634L6.28954 2.97983C6.6187 3.40304 6.73502 3.95409 6.60498 4.47423L6.05772 6.66329C5.99994 6.8944 6.06766 7.13888 6.2361 7.30732L8.69268 9.7639C8.86113 9.93235 9.1056 10.0001 9.33671 9.94229L11.5258 9.39502C12.0459 9.26498 12.597 9.3813 13.0202 9.71047L15.3264 11.5042C16.1548 12.1485 16.231 13.3731 15.4889 14.1152L14.455 15.1492C13.7153 15.8889 12.6089 16.2137 11.5778 15.8512C9.01754 14.9511 6.61438 13.4774 4.56849 11.4315C2.5226 9.38562 1.04895 6.98246 0.148838 4.42225C-0.213682 3.39112 0.11113 2.28472 0.85085 1.545L1.88477 0.511076Z" fill="currentColor"/>
        </symbol>
    </defs>
</svg>