<svg xmlns="http://www.w3.org/2000/svg">
    <defs>
        <symbol id="arrow-left" viewBox="0 0 16 16">
            <path fill-rule="evenodd" clip-rule="evenodd" d="M1 8C1 11.866 4.13401 15 8 15C11.866 15 15 11.866 15 8C15 4.13401 11.866 1 8 1C4.13401 1 1 4.13401 1 8ZM16 8C16 12.4183 12.4183 16 8 16C3.58172 16 0 12.4183 0 8C0 3.58172 3.58172 0 8 0C12.4183 0 16 3.58172 16 8ZM11.5 7.5C11.7761 7.5 12 7.72386 12 8C12 8.27614 11.7761 8.5 11.5 8.5H5.70711L7.85355 10.6464C8.04882 10.8417 8.04882 11.1583 7.85355 11.3536C7.65829 11.5488 7.34171 11.5488 7.14645 11.3536L4.14645 8.35355C3.95118 8.15829 3.95118 7.84171 4.14645 7.64645L7.14645 4.64645C7.34171 4.45118 7.65829 4.45118 7.85355 4.64645C8.04882 4.84171 8.04882 5.15829 7.85355 5.35355L5.70711 7.5H11.5Z" fill="currentColor"/>
        </symbol>
        <symbol id="arrow-right" viewBox="0 0 16 16">
            <path fill-rule="evenodd" clip-rule="evenodd" d="M1 8C1 11.866 4.13401 15 8 15C11.866 15 15 11.866 15 8C15 4.13401 11.866 1 8 1C4.13401 1 1 4.13401 1 8ZM16 8C16 12.4183 12.4183 16 8 16C3.58172 16 0 12.4183 0 8C0 3.58172 3.58172 0 8 0C12.4183 0 16 3.58172 16 8ZM4.5 7.5C4.22386 7.5 4 7.72386 4 8C4 8.27614 4.22386 8.5 4.5 8.5H10.2929L8.14645 10.6464C7.95118 10.8417 7.95118 11.1583 8.14645 11.3536C8.34171 11.5488 8.65829 11.5488 8.85355 11.3536L11.8536 8.35355C12.0488 8.15829 12.0488 7.84171 11.8536 7.64645L8.85355 4.64645C8.65829 4.45118 8.34171 4.45118 8.14645 4.64645C7.95118 4.84171 7.95118 5.15829 8.14645 5.35355L10.2929 7.5H4.5Z" fill="currentColor"/>
        </symbol>
        <symbol id="star">
            <path d="M12.7933 3.85958C13.0931 2.9393 14.3951 2.9393 14.6949 3.85958L16.446 9.23398C16.5801 9.64561 16.9639 9.92418 17.3968 9.92418H23.0576C24.0269 9.92418 24.4293 11.1652 23.6443 11.734L19.0694 15.0486C18.7179 15.3033 18.5709 15.7555 18.7053 16.1682L20.4539 21.5349C20.7539 22.4557 19.7006 23.2227 18.9164 22.6544L14.3308 19.3321C13.9808 19.0784 13.5074 19.0784 13.1574 19.3321L8.57183 22.6544C7.78757 23.2227 6.73428 22.4557 7.0343 21.5348L8.78288 16.1682C8.91733 15.7555 8.77025 15.3033 8.41879 15.0486L3.84392 11.734C3.05891 11.1652 3.46124 9.92418 4.43064 9.92418H10.0914C10.5243 9.92418 10.9081 9.64561 11.0422 9.23398L12.7933 3.85958Z" fill="currentColor"/>
        </symbol>
        <symbol id="telegram" viewBox="0 0 16 16">
            <path d="M16 8C16 12.4183 12.4183 16 8 16C3.58172 16 0 12.4183 0 8C0 3.58172 3.58172 0 8 0C12.4183 0 16 3.58172 16 8ZM8.28672 5.90599C7.50861 6.22963 5.95346 6.8995 3.6213 7.91558C3.2426 8.06618 3.04421 8.21351 3.02615 8.35757C2.99563 8.60103 3.30052 8.6969 3.71569 8.82745C3.77216 8.8452 3.83068 8.8636 3.89067 8.8831C4.29913 9.01588 4.84859 9.17121 5.13423 9.17738C5.39334 9.18298 5.68253 9.07616 6.0018 8.85692C8.18081 7.38603 9.30563 6.64258 9.37625 6.62655C9.42607 6.61524 9.49511 6.60102 9.54188 6.6426C9.58866 6.68418 9.58406 6.76291 9.57911 6.78404C9.5489 6.9128 8.35212 8.02543 7.73279 8.60121C7.53971 8.78071 7.40276 8.90804 7.37476 8.93712C7.31204 9.00226 7.24812 9.06388 7.18669 9.1231C6.80722 9.48891 6.52265 9.76324 7.20245 10.2112C7.52913 10.4265 7.79055 10.6045 8.05134 10.7821C8.33616 10.9761 8.62023 11.1695 8.98778 11.4105C9.08142 11.4718 9.17086 11.5356 9.25796 11.5977C9.58942 11.834 9.88721 12.0463 10.2551 12.0124C10.4689 11.9928 10.6897 11.7918 10.8018 11.1923C11.0668 9.77545 11.5878 6.70567 11.7082 5.44069C11.7187 5.32986 11.7055 5.18802 11.6948 5.12576C11.6842 5.06349 11.6619 4.97478 11.581 4.90911C11.4851 4.83133 11.3371 4.81493 11.2709 4.8161C10.9701 4.8214 10.5084 4.98192 8.28672 5.90599Z" fill="currentColor"/>
        </symbol>
        <symbol id="whatsapp" viewBox="0 0 16 16">
            <path d="M13.6013 2.32644C12.1074 0.824899 10.1154 0 7.99428 0C3.62651 0 0.0684247 3.55809 0.0646233 7.92587C0.0646233 9.32478 0.429555 10.6857 1.1214 11.8907L0 16L4.20432 14.8976C5.36373 15.5286 6.6676 15.8632 7.99428 15.8632H7.99808C12.3659 15.8632 15.9239 12.3051 15.9277 7.93348C15.9239 5.81611 15.099 3.82419 13.6013 2.32644ZM7.99428 14.5213C6.80825 14.5213 5.64884 14.2019 4.63767 13.6013L4.39819 13.4569L1.90449 14.1107L2.56973 11.6778L2.41387 11.4269C1.75243 10.3778 1.40651 9.16512 1.40651 7.92207C1.40651 4.29556 4.36397 1.33809 7.99808 1.33809C9.75812 1.33809 11.4117 2.02613 12.6586 3.26919C13.9016 4.51604 14.5859 6.16964 14.5859 7.92968C14.5821 11.5676 11.6246 14.5213 7.99428 14.5213ZM11.6094 9.58708C11.4117 9.48824 10.4386 9.00927 10.2561 8.94084C10.0736 8.87622 9.94059 8.84201 9.81134 9.03968C9.67829 9.23735 9.29815 9.68591 9.18411 9.81516C9.07007 9.94821 8.95223 9.96341 8.75456 9.86458C8.55689 9.76574 7.91826 9.55667 7.16178 8.88002C6.57257 8.35543 6.17723 7.70539 6.05938 7.50772C5.94534 7.31005 6.04798 7.20361 6.14682 7.10478C6.23425 7.01734 6.34449 6.87289 6.44332 6.75885C6.54216 6.64481 6.57637 6.56118 6.64099 6.42813C6.70562 6.29508 6.67521 6.18104 6.62579 6.08221C6.57637 5.98337 6.18103 5.00642 6.01377 4.61107C5.85411 4.22333 5.69065 4.27655 5.56901 4.27275C5.45497 4.26515 5.32192 4.26515 5.18887 4.26515C5.05582 4.26515 4.84295 4.31456 4.66048 4.51224C4.47801 4.70991 3.96863 5.18888 3.96863 6.16584C3.96863 7.14279 4.67949 8.08173 4.77832 8.21478C4.87716 8.34783 6.17343 10.3474 8.16154 11.2065C8.63291 11.4117 9.00165 11.5334 9.29055 11.6246C9.76572 11.7767 10.1953 11.7539 10.5374 11.7044C10.9175 11.6474 11.7082 11.2255 11.8755 10.7617C12.0389 10.2979 12.0389 9.90259 11.9895 9.81896C11.9401 9.73533 11.8071 9.68591 11.6094 9.58708Z" fill="currentColor"/>
        </symbol>
        <symbol id="phone" viewBox="0 0 16 16">
            <path d="M3.65387 1.32849C3.40343 1.00649 2.92745 0.976861 2.639 1.26531L1.60508 2.29923C1.1216 2.78271 0.94387 3.46766 1.1551 4.06847C2.00338 6.48124 3.39215 8.74671 5.32272 10.6773C7.25329 12.6078 9.51876 13.9966 11.9315 14.8449C12.5323 15.0561 13.2173 14.8784 13.7008 14.3949L14.7347 13.361C15.0231 13.0726 14.9935 12.5966 14.6715 12.3461L12.3653 10.5524C12.2008 10.4245 11.9866 10.3793 11.7845 10.4298L9.59541 10.9771C9.00082 11.1257 8.37183 10.9515 7.93845 10.5181L5.48187 8.06155C5.04849 7.62817 4.87427 6.99919 5.02292 6.40459L5.57019 4.21553C5.62073 4.01336 5.57552 3.79918 5.44758 3.63468L3.65387 1.32849ZM1.88477 0.511076C2.62689 -0.231039 3.8515 -0.154797 4.49583 0.673634L6.28954 2.97983C6.6187 3.40304 6.73502 3.95409 6.60498 4.47423L6.05772 6.66329C5.99994 6.8944 6.06766 7.13888 6.2361 7.30732L8.69268 9.7639C8.86113 9.93235 9.1056 10.0001 9.33671 9.94229L11.5258 9.39502C12.0459 9.26498 12.597 9.3813 13.0202 9.71047L15.3264 11.5042C16.1548 12.1485 16.231 13.3731 15.4889 14.1152L14.455 15.1492C13.7153 15.8889 12.6089 16.2137 11.5778 15.8512C9.01754 14.9511 6.61438 13.4774 4.56849 11.4315C2.5226 9.38562 1.04895 6.98246 0.148838 4.42225C-0.213682 3.39112 0.11113 2.28472 0.85085 1.545L1.88477 0.511076Z" fill="currentColor"/>
        </symbol>
        <symbol id="mail" viewBox="0 0 16 16">
            <path d="M15.5453 6.55847C15.6394 7.09345 15.6835 7.64019 15.6835 8.18399C15.6835 10.6179 14.8134 12.6755 13.2996 14.0688H13.3025C11.9768 15.2916 10.1573 16 7.99973 16C4.97503 16 2.209 14.2951 0.850974 11.5938C-0.283656 9.33331 -0.283659 6.67017 0.850972 4.40972C2.209 1.70542 4.97503 0.000539093 7.99973 0.000539093C9.98681 -0.0229766 11.9063 0.723645 13.3525 2.08167L11.0685 4.36563C10.2425 3.57786 9.14024 3.1487 7.99973 3.16633C5.91272 3.16633 4.14022 4.57433 3.50824 6.47028C3.17314 7.46382 3.17314 8.53966 3.50824 9.5332H3.51118C4.1461 11.4262 5.91566 12.8342 8.00267 12.8342C9.08145 12.8342 10.0074 12.5579 10.7246 12.0699H10.7217C11.5653 11.5115 12.1414 10.6326 12.3207 9.63902H7.99973V6.55847H15.5453Z" fill="currentColor"/>
        </symbol>
        <symbol id="discord" viewBox="0 0 16 16">
            <path d="M13.545 1.90696C12.5075 1.43082 11.4127 1.09099 10.288 0.895958C10.2778 0.894242 10.2673 0.895724 10.258 0.900201C10.2487 0.904678 10.241 0.911929 10.236 0.920958C10.095 1.17096 9.93899 1.49796 9.82999 1.75396C8.61759 1.56997 7.38438 1.56997 6.17199 1.75396C6.0504 1.46878 5.91285 1.19067 5.75999 0.920958C5.75486 0.912028 5.74714 0.90486 5.73786 0.900398C5.72858 0.895936 5.71816 0.894388 5.70799 0.895958C4.58305 1.0902 3.48818 1.43006 2.45099 1.90696C2.44211 1.91034 2.43469 1.91671 2.42999 1.92496C0.355986 5.02396 -0.213014 8.04696 0.0659858 11.032C0.0669858 11.046 0.0759858 11.06 0.0869858 11.069C1.29472 11.9636 2.64558 12.6466 4.08199 13.089C4.09213 13.0922 4.10302 13.092 4.1131 13.0886C4.12317 13.0852 4.13189 13.0787 4.13799 13.07C4.44599 12.65 4.71999 12.207 4.95599 11.741C4.95924 11.7346 4.9611 11.7276 4.96143 11.7205C4.96176 11.7133 4.96056 11.7062 4.95791 11.6996C4.95526 11.693 4.95121 11.687 4.94605 11.682C4.94089 11.6771 4.93473 11.6733 4.92799 11.671C4.49715 11.5054 4.07988 11.3064 3.67999 11.076C3.67268 11.0717 3.66654 11.0658 3.66211 11.0586C3.65768 11.0514 3.6551 11.0432 3.65461 11.0348C3.65411 11.0264 3.65571 11.018 3.65927 11.0103C3.66283 11.0027 3.66823 10.996 3.67499 10.991C3.75899 10.928 3.84299 10.862 3.92299 10.796C3.93005 10.7903 3.93853 10.7866 3.94752 10.7854C3.9565 10.7842 3.96565 10.7854 3.97399 10.789C6.59299 11.985 9.42799 11.985 12.015 10.789C12.0236 10.7851 12.0331 10.7837 12.0425 10.785C12.0518 10.7862 12.0607 10.79 12.068 10.796C12.148 10.862 12.232 10.928 12.316 10.991C12.3228 10.9959 12.3283 11.0025 12.3319 11.0101C12.3355 11.0177 12.3372 11.0261 12.3368 11.0345C12.3364 11.043 12.334 11.0511 12.3296 11.0584C12.3253 11.0656 12.3192 11.0716 12.312 11.076C11.913 11.3085 11.4952 11.5072 11.063 11.67C11.0563 11.6725 11.0502 11.6765 11.0452 11.6816C11.0401 11.6866 11.0362 11.6927 11.0336 11.6994C11.0311 11.7061 11.03 11.7133 11.0304 11.7204C11.0308 11.7276 11.0327 11.7346 11.036 11.741C11.276 12.206 11.551 12.65 11.853 13.07C11.8591 13.0787 11.8678 13.0852 11.8779 13.0886C11.8879 13.092 11.8988 13.0922 11.909 13.089C13.3478 12.648 14.7009 11.9649 15.91 11.069C15.916 11.0647 15.921 11.0592 15.9246 11.0528C15.9282 11.0464 15.9304 11.0393 15.931 11.032C16.265 7.58096 15.372 4.58296 13.565 1.92596C13.5632 1.92157 13.5604 1.91761 13.557 1.91434C13.5536 1.91107 13.5495 1.90855 13.545 1.90696ZM5.34699 9.21396C4.55799 9.21396 3.90899 8.48996 3.90899 7.60196C3.90899 6.71296 4.54599 5.98896 5.34699 5.98896C6.15399 5.98896 6.79699 6.71896 6.78499 7.60196C6.78499 8.48996 6.14799 9.21396 5.34699 9.21396ZM10.663 9.21396C9.87499 9.21396 9.22499 8.48996 9.22499 7.60196C9.22499 6.71296 9.86199 5.98896 10.663 5.98896C11.47 5.98896 12.114 6.71896 12.101 7.60196C12.101 8.48996 11.47 9.21396 10.663 9.21396Z" fill="currentColor"/>
        </symbol>
        <symbol id="linkedin" viewBox="0 0 16 16">
            <path d="M0 1.14614C0 0.513313 0.526012 0 1.17491 0H14.8251C15.474 0 16 0.513315 16 1.14614V14.8539C16 15.4869 15.474 16 14.8251 16L1.17491 16C0.526012 16 0 15.4869 0 14.8539V1.14614ZM4.94338 13.3937V6.16876H2.54196V13.3937H4.94338ZM3.74266 5.18232C4.58008 5.18232 5.10131 4.62753 5.10131 3.9342C5.0857 3.22527 4.58008 2.68587 3.75854 2.68587C2.93709 2.68587 2.4 3.22527 2.4 3.9342C2.4 4.62753 2.92112 5.18232 3.72701 5.18232H3.74266ZM8.6514 13.3937V9.35897C8.6514 9.14304 8.667 8.92732 8.73042 8.77296C8.90401 8.34153 9.29915 7.89471 9.96255 7.89471C10.8315 7.89471 11.1791 8.55725 11.1791 9.52851V13.3937H13.5803V9.251C13.5803 7.03184 12.3956 5.99922 10.8156 5.99922C9.54177 5.99922 8.9706 6.69937 8.65146 7.19167V7.21656H8.63543C8.6407 7.20832 8.64605 7.20003 8.65146 7.19167V6.16876H6.25007C6.28158 6.8467 6.25007 13.3937 6.25007 13.3937H8.6514Z" fill="currentColor"/>
        </symbol>
        <symbol id="inst" viewBox="0 0 16 16">
            <path d="M8.00075 0C5.82806 0 5.55539 0.00950025 4.70205 0.048334C3.85037 0.0873344 3.26903 0.222169 2.76036 0.420004C2.23419 0.62434 1.78785 0.897676 1.34318 1.34251C0.898176 1.78719 0.62484 2.23352 0.419838 2.75953C0.221502 3.26837 0.0865008 3.84987 0.0481671 4.70122C0.01 5.55456 0 5.82739 0 8.00008C0 10.1728 0.00966692 10.4446 0.048334 11.298C0.0875011 12.1496 0.222336 12.731 0.420004 13.2396C0.624507 13.7658 0.897843 14.2121 1.34268 14.6568C1.78719 15.1018 2.23352 15.3758 2.75936 15.5802C3.26837 15.778 3.84987 15.9128 4.70138 15.9518C5.55472 15.9907 5.82723 16.0002 7.99975 16.0002C10.1726 16.0002 10.4444 15.9907 11.2978 15.9518C12.1495 15.9128 12.7315 15.778 13.2405 15.5802C13.7665 15.3758 14.2121 15.1018 14.6567 14.6568C15.1017 14.2121 15.375 13.7658 15.58 13.2398C15.7767 12.731 15.9117 12.1495 15.9517 11.2981C15.99 10.4448 16 10.1728 16 8.00008C16 5.82739 15.99 5.55472 15.9517 4.70138C15.9117 3.84971 15.7767 3.26837 15.58 2.7597C15.375 2.23352 15.1017 1.78719 14.6567 1.34251C14.2116 0.897509 13.7666 0.624173 13.24 0.420004C12.73 0.222169 12.1483 0.0873344 11.2966 0.048334C10.4433 0.00950025 10.1716 0 7.99825 0H8.00075ZM7.28308 1.44168C7.49608 1.44135 7.73375 1.44168 8.00075 1.44168C10.1368 1.44168 10.3899 1.44935 11.2335 1.48768C12.0135 1.52335 12.4368 1.65368 12.7188 1.76319C13.0921 1.90819 13.3583 2.08152 13.6381 2.36152C13.9181 2.64153 14.0915 2.9082 14.2368 3.28153C14.3463 3.5632 14.4768 3.98654 14.5123 4.76655C14.5507 5.60989 14.559 5.86323 14.559 7.99825C14.559 10.1333 14.5507 10.3866 14.5123 11.2299C14.4767 12.01 14.3463 12.4333 14.2368 12.715C14.0918 13.0883 13.9181 13.3541 13.6381 13.634C13.3581 13.914 13.0923 14.0873 12.7188 14.2323C12.4371 14.3423 12.0135 14.4723 11.2335 14.508C10.3901 14.5463 10.1368 14.5547 8.00075 14.5547C5.86456 14.5547 5.61139 14.5463 4.76805 14.508C3.98804 14.472 3.5647 14.3416 3.28253 14.2321C2.9092 14.0871 2.64253 13.9138 2.36252 13.6338C2.08252 13.3538 1.90919 13.0878 1.76385 12.7143C1.65435 12.4326 1.52385 12.0093 1.48835 11.2293C1.45002 10.3859 1.44235 10.1326 1.44235 7.99625C1.44235 5.85989 1.45002 5.60789 1.48835 4.76455C1.52402 3.98454 1.65435 3.5612 1.76385 3.2792C1.90885 2.90586 2.08252 2.63919 2.36252 2.35919C2.64253 2.07919 2.9092 1.90585 3.28253 1.76052C3.56454 1.65052 3.98804 1.52052 4.76805 1.48468C5.50606 1.45135 5.79206 1.44135 7.28308 1.43968V1.44168ZM12.2711 2.77003C11.7411 2.77003 11.3111 3.19953 11.3111 3.72971C11.3111 4.25971 11.7411 4.68972 12.2711 4.68972C12.8011 4.68972 13.2311 4.25971 13.2311 3.72971C13.2311 3.1997 12.8011 2.7697 12.2711 2.7697V2.77003ZM8.00075 3.89171C5.73189 3.89171 3.89237 5.73123 3.89237 8.00008C3.89237 10.2689 5.73189 12.1076 8.00075 12.1076C10.2696 12.1076 12.1085 10.2689 12.1085 8.00008C12.1085 5.73123 10.2694 3.89171 8.00058 3.89171H8.00075ZM8.00075 5.33339C9.47343 5.33339 10.6674 6.52723 10.6674 8.00008C10.6674 9.47276 9.47343 10.6668 8.00075 10.6668C6.5279 10.6668 5.33406 9.47276 5.33406 8.00008C5.33406 6.52723 6.5279 5.33339 8.00075 5.33339Z" fill="currentColor"/>
        </symbol>
    </defs>
</svg>







