<svg xmlns="http://www.w3.org/2000/svg">
    <defs>
        <symbol id="arrow-left" viewBox="0 0 16 16">
            <path fill-rule="evenodd" clip-rule="evenodd" d="M1 8C1 11.866 4.13401 15 8 15C11.866 15 15 11.866 15 8C15 4.13401 11.866 1 8 1C4.13401 1 1 4.13401 1 8ZM16 8C16 12.4183 12.4183 16 8 16C3.58172 16 0 12.4183 0 8C0 3.58172 3.58172 0 8 0C12.4183 0 16 3.58172 16 8ZM11.5 7.5C11.7761 7.5 12 7.72386 12 8C12 8.27614 11.7761 8.5 11.5 8.5H5.70711L7.85355 10.6464C8.04882 10.8417 8.04882 11.1583 7.85355 11.3536C7.65829 11.5488 7.34171 11.5488 7.14645 11.3536L4.14645 8.35355C3.95118 8.15829 3.95118 7.84171 4.14645 7.64645L7.14645 4.64645C7.34171 4.45118 7.65829 4.45118 7.85355 4.64645C8.04882 4.84171 8.04882 5.15829 7.85355 5.35355L5.70711 7.5H11.5Z" fill="currentColor"/>
        </symbol>
        <symbol id="arrow-right" viewBox="0 0 16 16">
            <path fill-rule="evenodd" clip-rule="evenodd" d="M1 8C1 11.866 4.13401 15 8 15C11.866 15 15 11.866 15 8C15 4.13401 11.866 1 8 1C4.13401 1 1 4.13401 1 8ZM16 8C16 12.4183 12.4183 16 8 16C3.58172 16 0 12.4183 0 8C0 3.58172 3.58172 0 8 0C12.4183 0 16 3.58172 16 8ZM4.5 7.5C4.22386 7.5 4 7.72386 4 8C4 8.27614 4.22386 8.5 4.5 8.5H10.2929L8.14645 10.6464C7.95118 10.8417 7.95118 11.1583 8.14645 11.3536C8.34171 11.5488 8.65829 11.5488 8.85355 11.3536L11.8536 8.35355C12.0488 8.15829 12.0488 7.84171 11.8536 7.64645L8.85355 4.64645C8.65829 4.45118 8.34171 4.45118 8.14645 4.64645C7.95118 4.84171 7.95118 5.15829 8.14645 5.35355L10.2929 7.5H4.5Z" fill="currentColor"/>
        </symbol>
        <symbol id="star" viewBox="0 0 27 27">
            <path d="M153.182 3.85958C153.482 2.9393 154.783 2.9393 155.083 3.85958L156.834 9.23398C156.969 9.64561 157.352 9.92418 157.785 9.92418H163.446C164.415 9.92418 164.818 11.1652 164.033 11.734L159.458 15.0486C159.106 15.3033 158.959 15.7555 159.094 16.1682L160.842 21.5349C161.142 22.4557 160.089 23.2227 159.305 22.6544L154.719 19.3321C154.369 19.0784 153.896 19.0784 153.546 19.3321L148.96 22.6544C148.176 23.2227 147.123 22.4557 147.423 21.5348L149.171 16.1682C149.306 15.7555 149.159 15.3033 148.807 15.0486L144.232 11.734C143.447 11.1652 143.85 9.92418 144.819 9.92418H150.48C150.913 9.92418 151.297 9.6456 151.431 9.23398L153.182 3.85958Z" fill="currentColor"/>
        </symbol>
    </defs>
</svg>